<svg xmlns="http://www.w3.org/2000/svg" viewBox="0 0 164.1 164.1"><defs><style>.cls-1{fill:#a1dcf3;}.cls-1,.cls-2,.cls-3{stroke:#00557c;stroke-linecap:round;stroke-linejoin:round;stroke-width:1.88px;}.cls-2{fill:#fff;}.cls-3{fill:none;}</style></defs><title>Asset 2</title><g id="Layer_2" data-name="Layer 2"><g id="Layer_1-2" data-name="Layer 1"><path class="cls-1" d="M32.48,144.65l41.76-41.77,28.64-28.64,41.77-41.76a11.28,11.28,0,1,0,6.89-19.93,11.28,11.28,0,1,0-19.92,6.9L89.85,61.21,61.21,89.85,19.45,131.62a11.28,11.28,0,1,0-6.9,19.92,11.28,11.28,0,1,0,19.93-6.89Z"/><path class="cls-1" d="M144.65,131.62,102.88,89.85,74.24,61.21,32.48,19.45a11.28,11.28,0,1,0-19.93-6.9,11.28,11.28,0,1,0,6.9,19.93L61.21,74.24l28.64,28.64,41.77,41.77a11.28,11.28,0,1,0,19.92,6.89,11.28,11.28,0,1,0-6.89-19.92Z"/><path class="cls-2" d="M134.77,72.36a52.72,52.72,0,1,0-83.89,42.51v11.38A7.07,7.07,0,0,0,58,133.32h48.2a7.08,7.08,0,0,0,7.07-7.07V114.87A52.64,52.64,0,0,0,134.77,72.36Z"/><circle class="cls-1" cx="64.27" cy="75.78" r="11.08"/><circle class="cls-1" cx="99.83" cy="75.78" r="11.08"/><line class="cls-3" x1="70.95" y1="121.79" x2="70.95" y2="133.32"/><line class="cls-3" x1="93.14" y1="121.79" x2="93.14" y2="133.32"/><line class="cls-3" x1="82.05" y1="121.79" x2="82.05" y2="133.32"/></g></g></svg>