<svg xmlns="http://www.w3.org/2000/svg" viewBox="0 0 160.23 100.38"><defs><style>.cls-1{fill:#a1dcf3;}.cls-2{fill:#00557c;}.cls-3{fill:#fff;}</style></defs><title>Asset 6</title><g id="Layer_2" data-name="Layer 2"><g id="Layer_1-2" data-name="Layer 1"><path class="cls-1" d="M2.36,50.19c9.25,12.08,40.16,48.3,77.76,48.3s68.5-36.22,77.75-48.3C148.62,38.11,117.71,1.88,80.12,1.88S11.61,38.11,2.36,50.19Zm118.6,0A40.84,40.84,0,1,1,80.12,9.35,40.89,40.89,0,0,1,121,50.19Z"/><path class="cls-2" d="M159.8,49.62C151,38,119.19,0,80.12,0S9.25,38,.43,49.62L0,50.19l.43.57c8.82,11.64,40.62,49.62,79.69,49.62S151,62.4,159.8,50.76l.43-.57ZM80.12,98.49c-37.6,0-68.51-36.22-77.76-48.3C11.61,38.11,42.52,1.88,80.12,1.88s68.5,36.23,77.75,48.31C148.62,62.27,117.71,98.49,80.12,98.49Z"/><path class="cls-3" d="M41.16,50.19a39,39,0,1,0,39-39A39,39,0,0,0,41.16,50.19Zm56.45,0A17.5,17.5,0,1,1,80.12,32.7,17.49,17.49,0,0,1,97.61,50.19Z"/><path class="cls-2" d="M80.12,9.35A40.84,40.84,0,1,0,121,50.19,40.89,40.89,0,0,0,80.12,9.35Zm0,79.8a39,39,0,1,1,39-39A39,39,0,0,1,80.12,89.15Z"/><circle class="cls-2" cx="80.12" cy="50.19" r="17.49" transform="translate(-12.02 71.35) rotate(-45)"/></g></g></svg>