<svg xmlns="http://www.w3.org/2000/svg" viewBox="0 0 856.88 208.98"><defs><style>.cls-1{fill:#ffffff;}</style></defs><title>Asset 1</title><g id="Layer_2" data-name="Layer 2"><g id="Layer_1-2" data-name="Layer 1"><path class="cls-1" d="M115,10a10,10,0,1,1-10-10A10,10,0,0,1,115,10Z"/><path class="cls-1" d="M114.47,199a10,10,0,1,1-10-10A10,10,0,0,1,114.47,199Z"/><path class="cls-1" d="M209,104.49a10,10,0,1,1-10-10A10,10,0,0,1,209,104.49Z"/><circle class="cls-1" cx="9.97" cy="104.49" r="9.97"/><path class="cls-1" d="M125.56,104.49a21.07,21.07,0,1,1-21.07-21.07A21.07,21.07,0,0,1,125.56,104.49Z"/><path class="cls-1" d="M168.42,54.14a13.58,13.58,0,1,1-13.58-13.58A13.58,13.58,0,0,1,168.42,54.14Z"/><path class="cls-1" d="M168.42,154.61A13.58,13.58,0,1,1,154.84,141,13.58,13.58,0,0,1,168.42,154.61Z"/><path class="cls-1" d="M67.68,54.14A13.58,13.58,0,1,1,54.1,40.56,13.58,13.58,0,0,1,67.68,54.14Z"/><path class="cls-1" d="M67.68,154.61A13.58,13.58,0,1,1,54.1,141,13.58,13.58,0,0,1,67.68,154.61Z"/><path class="cls-1" d="M121.4,54.14a16.91,16.91,0,1,1-16.91-16.9A16.91,16.91,0,0,1,121.4,54.14Z"/><path class="cls-1" d="M121.4,154.61a16.91,16.91,0,1,1-16.91-16.91A16.91,16.91,0,0,1,121.4,154.61Z"/><path class="cls-1" d="M171.75,104.49a16.91,16.91,0,1,1-16.91-16.91A16.91,16.91,0,0,1,171.75,104.49Z"/><circle class="cls-1" cx="54.14" cy="104.49" r="16.91"/><path class="cls-1" d="M355.68,139.86c-18.06,0-32.81-13.86-32.81-34.22v-.25c0-19,13.35-34.22,31.54-34.22,19.46,0,30.53,15.9,30.53,33.33a4.56,4.56,0,0,1-4.58,4.58H332.79c1.4,14.24,11.45,22.26,23.15,22.26a26.87,26.87,0,0,0,18.95-7.63,4.19,4.19,0,1,1,5.6,6.23C374.26,135.92,366.88,139.86,355.68,139.86Zm19.47-38c-1-12-7.89-22.39-21-22.39-11.45,0-20.1,9.54-21.37,22.39Z"/><path class="cls-1" d="M402,72.57V57.05a4.86,4.86,0,0,1,4.83-5,5.05,5.05,0,0,1,5,5V72.57H428.8a4.48,4.48,0,0,1,4.45,4.33,4.39,4.39,0,0,1-4.45,4.32H411.75v38.42c0,8,4.46,10.94,11.07,10.94,3.43,0,5.22-.9,6-.9a4.24,4.24,0,0,1,4.2,4.2,4.11,4.11,0,0,1-2.8,3.82,24.83,24.83,0,0,1-9.67,1.78c-10.56,0-18.57-5.22-18.57-18.57V81.22"/><path class="cls-1" d="M570.87,52c0-3.17,2.55-5.21,5.73-5.21s5.85,2,5.85,5.21v1.66c0,3.05-2.55,5.21-5.85,5.21s-5.73-2.16-5.73-5.21Zm.89,21.69a5,5,0,0,1,4.84-5,4.89,4.89,0,0,1,5,5V134a4.79,4.79,0,0,1-4.84,5,4.89,4.89,0,0,1-5-5Z"/><path class="cls-1" d="M682.67,52c0-3.17,2.55-5.21,5.73-5.21s5.85,2,5.85,5.21v1.66c0,3.05-2.55,5.21-5.85,5.21s-5.73-2.16-5.73-5.21Zm.89,21.69a5,5,0,0,1,4.84-5,4.88,4.88,0,0,1,5,5V134a4.78,4.78,0,0,1-4.83,5,4.89,4.89,0,0,1-5-5Z"/><path class="cls-1" d="M301.18,139.9a4.64,4.64,0,0,1-4.64-4.64V98.07a19.84,19.84,0,0,0-39.67,0v37.19a4.64,4.64,0,0,1-9.28,0V98.07a29.12,29.12,0,0,1,58.23,0v37.19A4.64,4.64,0,0,1,301.18,139.9Z"/><path class="cls-1" d="M657.55,139.9a4.64,4.64,0,0,1-4.64-4.64V98.07a19.84,19.84,0,0,0-39.67,0v37.19a4.64,4.64,0,0,1-9.28,0V98.07a29.11,29.11,0,1,1,58.22,0v37.19A4.63,4.63,0,0,1,657.55,139.9Z"/><path class="cls-1" d="M545.63,139.9a4.64,4.64,0,0,1-4.64-4.64V96.71a18.29,18.29,0,1,0-36.58,0v38.55a4.64,4.64,0,1,1-9.27,0V96.71a27.57,27.57,0,1,1,55.13,0v38.55A4.64,4.64,0,0,1,545.63,139.9Z"/><path class="cls-1" d="M499.77,139.9a4.63,4.63,0,0,1-4.63-4.64V96.71a18.3,18.3,0,0,0-36.59,0v38.55a4.64,4.64,0,1,1-9.27,0V96.71a27.57,27.57,0,1,1,55.13,0v38.55A4.64,4.64,0,0,1,499.77,139.9Z"/><path class="cls-1" d="M769.35,139.9a4.64,4.64,0,0,1-4.64-4.64V98.07a19.84,19.84,0,0,0-39.67,0v37.19a4.64,4.64,0,0,1-9.28,0V98.07a29.11,29.11,0,1,1,58.22,0v37.19A4.63,4.63,0,0,1,769.35,139.9Z"/><path class="cls-1" d="M856.87,106.09a36.39,36.39,0,0,0-16.23-30.21,31.69,31.69,0,0,0-17.19-5.13c-18.41,0-33.38,15.89-33.38,35.43s15,35.43,33.38,35.43c9.38,0,18.51-4.7,24.58-11.34l-.34,9.49c0,15.39-10.07,24-24.57,24a41.54,41.54,0,0,1-23.28-7.12,3.85,3.85,0,0,0-2.16-.64,4.67,4.67,0,0,0-4.45,4.32,4.52,4.52,0,0,0,2.54,4.07,51.5,51.5,0,0,0,27.48,7.76c10.43,0,19.2-2.92,25-8.77,5.35-5.35,8.4-13.1,8.4-23.28l.18-34Zm-33.42,26.63c-13.51,0-24.5-11.91-24.5-26.54s11-26.55,24.5-26.55,24.48,11.91,24.48,26.55S837,132.72,823.45,132.72Z"/></g></g></svg>
