<svg xmlns="http://www.w3.org/2000/svg" viewBox="0 0 189.76 133.23"><defs><style>.cls-1,.cls-6{fill:#fff;}.cls-1,.cls-2,.cls-3{stroke:#00557c;}.cls-1,.cls-2,.cls-3,.cls-5{stroke-miterlimit:10;stroke-width:1.88px;}.cls-2,.cls-5{fill:none;}.cls-3{fill:#00557c;}.cls-4{fill:#a1dcf3;}.cls-5{stroke:#a1dcf3;}</style></defs><title>Asset 4</title><g id="Layer_2" data-name="Layer 2"><g id="Layer_1-2" data-name="Layer 1"><rect class="cls-1" x="0.94" y="14.47" width="168.77" height="105.51" rx="3.75" ry="3.75"/><rect class="cls-2" x="0.94" y="0.94" width="168.77" height="119.03" rx="5.38" ry="5.38"/><path class="cls-3" d="M6.32.94h158a5.38,5.38,0,0,1,5.38,5.38v8.14a0,0,0,0,1,0,0H.94a0,0,0,0,1,0,0V6.32A5.38,5.38,0,0,1,6.32.94Z"/><rect class="cls-4" x="17.57" y="23.61" width="135.5" height="16.39"/><rect class="cls-4" x="17.57" y="47.48" width="58.45" height="58.45"/><line class="cls-5" x1="81.67" y1="49.36" x2="153.08" y2="49.36"/><line class="cls-5" x1="81.67" y1="63.03" x2="153.08" y2="63.03"/><line class="cls-5" x1="81.67" y1="76.71" x2="153.08" y2="76.71"/><line class="cls-5" x1="81.67" y1="90.38" x2="153.08" y2="90.38"/><line class="cls-5" x1="81.67" y1="104.05" x2="153.08" y2="104.05"/><circle class="cls-6" cx="151.34" cy="7.7" r="1.41"/><circle class="cls-6" cx="156.37" cy="7.7" r="1.41"/><circle class="cls-6" cx="161.4" cy="7.7" r="1.41"/><path class="cls-1" d="M180.17,97.88,146.66,87a2.49,2.49,0,0,0-3.14,3.14l11,33.81a2.48,2.48,0,0,0,1.79,1.65,2.45,2.45,0,0,0,2.34-.66l6.13-6.13,12.77,12.76a2.48,2.48,0,0,0,3.51,0l7-7a2.48,2.48,0,0,0,0-3.51l-12.76-12.77,6.13-6.13,0,0a2.49,2.49,0,0,0-1.31-4.21Z"/></g></g></svg>